<?xml version="1.0" encoding="utf-8"?>
<!-- Generator: Adobe Illustrator 24.1.2, SVG Export Plug-In . SVG Version: 6.00 Build 0)  -->
<svg version="1.1" id="Laag_1" xmlns="http://www.w3.org/2000/svg" xmlns:xlink="http://www.w3.org/1999/xlink" x="0px" y="0px"
	 viewBox="0 0 972.2 972.2" style="enable-background:new 0 0 972.2 972.2;" xml:space="preserve">
<style type="text/css">
	.st0{fill:#FFFFFF;}
</style>
<g>
	<path class="st0" d="M539.1,972.2H0V433.1C0,193.9,193.9,0,433.1,0h539.1v539.1C972.2,778.3,778.3,972.2,539.1,972.2"/>
</g>
<g>
	<path d="M539.3,566.8V604c0,28.1-19.3,48.6-47.4,50.3c-14.9,0.9-28.1-2.8-39.1-13.2c-2-1.9-3.3-1.8-5.7,0.1
		c-6.5,5.2-13.5,9.5-21.6,11.6c-21.1,5.3-46.2-1.9-57.8-22.4c-4.4-7.8-6.7-16.3-6.7-25.2c-0.1-26,0-51.9,0-77.9
		c0-6.4,3.1-9.4,9.5-9.5c2.8,0,5.7,0,8.5,0c5.6,0.1,8.8,3.2,8.9,8.9c0.1,5.7,0,11.5,0,17.2c0,20,0,40.1,0,60.1
		c0,11.3,5.9,20.5,15.7,23.6c16.3,5.3,33.2-3.7,33.2-24.8c0.1-25.1,0-50.2,0-75.4c0-6.9,2.8-9.7,9.7-9.7c2.9,0,5.8-0.1,8.7,0
		c4.9,0.2,7.8,2.9,8.2,7.9c0.1,0.9,0.1,1.8,0.1,2.7c0,25.1,0,49.2,0,74.4c0,8.1,2.2,16.4,9,21.4c8.2,6.1,17.3,6.6,26.4,2.5
		c9.3-4.2,13.3-12.3,13.4-22.2c0.2-25.4,0.1-50.9,0-76.4c0-1.8,0.1-3.5,0.7-5.2c1.1-3.3,3.6-5,7-5.2c3.9-0.2,7.8-0.2,11.7,0
		c4.7,0.3,7.5,3.6,7.5,8.6C539.3,539.8,539.3,553.3,539.3,566.8"/>
	<path d="M331.1,426.1v91.1c0,6.8-2.9,9.7-9.7,9.8c-2.3,0-4.7,0-7,0c-7.4,0-10.2-2.9-10.2-10.3c0-17.5,0-35.1,0-52.6
		c0-0.5,0-1,0-1.5c0-3.2-0.6-3.8-3.8-3.8c-9.8,0-19.6,0-29.4,0c-28,0-49.8-21.8-49.8-49.8c0-11.5,0-23,0-34.4
		c0-26.3,19.2-47.1,45.4-49.1c10.8-0.8,21.6-0.2,32.4-0.3c7.6-0.1,15.1,0,22.7,0c6.3,0,9.4,3.1,9.4,9.3
		C331.1,364.9,331.1,395.5,331.1,426.1 M304.2,391.9c0-12.6,0-25.3,0-37.9c0-2.9-0.6-3.6-3.2-3.6c-9.9,0-19.8-0.2-29.7,0
		c-12.1,0.3-22.4,10-23.2,22.1c-0.8,12.4-0.7,24.8-0.1,37.1c0.7,15.1,10.5,23.6,25.6,23.6c8.6,0,17.3,0,25.9,0
		c4.3,0,4.6-0.3,4.6-4.5V391.9z"/>
	<path d="M611.2,391.8c0,18.9,0,37.8,0,56.7c0,7.3-2.8,10.2-10.1,10.2c-2.5,0-5,0-7.5,0c-5.4,0-8.7-2.9-9.3-8.3
		c-0.1-1-0.2-2-1.3-2.5c-1.2-0.5-1.9,0.4-2.5,1.1c-5.8,7.2-13.7,10.6-22.6,11.9c-12,1.8-23.6,0.6-34-6.2c-12.4-8-18.6-19.9-21.5-34
		c-0.8-4-1.1-8.1-1.1-12.1c0.1-9.2,0-18.5,0-27.7c0-28.7,19.8-51.5,48.2-55.5c2.4-0.3,4.8-0.5,7.2-0.5c14.8,0,29.6,0,44.4,0
		c7.2,0,10.1,2.9,10.1,10.2C611.2,354,611.2,372.9,611.2,391.8 M584.3,380.1h0.1c0-8.7,0-17.5,0-26.2c0-2.9-0.7-3.6-3.2-3.6
		c-8.1,0-16.1-0.2-24.2,0c-15.2,0.4-27.4,11.7-28.5,26.9c-0.9,11.9-0.4,23.8-0.2,35.7c0.2,7.6,3.2,14.3,9.6,18.8
		c7.2,5.2,15.4,5.4,23.7,3.6c12.8-2.9,22.3-15.1,22.8-29C584.5,397.6,584.3,388.8,584.3,380.1"/>
	<path d="M798.9,594.1c-10.9,0-21.8,0-32.7,0c-3.4,0-4,0.6-4,4.1c0,4.4-0.1,8.8,1.2,13.1c3.3,11.1,12.1,17.2,24.3,17.8
		c11.6,0.5,21.1-3.3,29.1-11.6c4.1-4.3,8.3-4.2,12.7-0.2c1.6,1.4,3.2,2.9,4.8,4.3c3.7,3.4,4.3,7.4,1.5,11.6c-0.9,1.4-2,2.7-3.2,3.8
		c-10.8,10.6-23.7,16.5-38.9,17.2c-14.6,0.7-28.1-2.2-39.7-11.6c-12.3-10-18.3-23.2-18.7-38.9c-0.3-12.6-0.3-25.3,0-37.9
		c0.5-21.3,10.5-39.2,30.5-47.2c19.8-7.9,48.3-5,64.2,15.8c7,9.1,10.4,19.6,10.6,31c0.1,6.5,0,13,0,19.5c0,6.1-3.1,9.2-9.2,9.2
		C820.7,594.2,809.8,594.1,798.9,594.1 M787.9,571.7c7.6,0,15.1,0,22.7,0c2.6,0,3.3-0.8,3.4-3.4c0.1-2.2,0-4.5-0.5-6.7
		c-1.9-9.5-6.1-17.2-16.1-20.2c-5.5-1.6-11.1-1.6-16.8-0.7c-7.5,1.2-12.6,5.3-15.6,12.3c-2.1,4.9-3,10-2.9,15.3
		c0.1,2.8,0.7,3.5,3.6,3.5C773.2,571.7,780.6,571.7,787.9,571.7"/>
	<path d="M798.8,401.3c-11,0-22,0-32.9,0c-3.6,0-4.1,0.6-4.2,4.2c0,4-0.1,8,0.9,11.9c2.8,11.1,11.1,17.8,22.7,18.7
		c12.2,1,22.6-2.5,31-11.5c4-4.2,8.2-4.2,12.5-0.3c1.6,1.5,3.2,2.9,4.8,4.3c4,3.6,4.5,7.7,1.4,12.2c-2.8,3.9-6.5,6.9-10.3,9.7
		c-20.6,15.5-52.6,13.9-70.1,0.2c-12.4-9.8-19-22.7-19.6-38.4c-0.5-13.7-0.6-27.4,0-41.2c1.2-30,22.1-47.2,46.2-49
		c16.3-1.2,31,2.5,43.3,13.8c9,8.4,13.8,18.9,15.4,31c1.1,8.7,0.4,17.4,0.5,26.2c0,4.9-3.5,8-8.6,8.1
		C820.8,401.3,809.8,401.3,798.8,401.3 M787.6,379h8.7c4.5,0,9,0.1,13.5,0c2.9-0.1,3.6-0.8,3.7-3.8c0-1.4,0-2.8-0.1-4.2
		c-1-9.9-6.1-20.7-18.6-23c-4-0.8-8.1-1-12.2-0.5c-6.7,0.7-12.5,3.1-16.2,9.2c-3.3,5.5-4.7,11.5-4.7,17.8c0,3.9,0.5,4.5,4.5,4.5
		C773.3,379.1,780.5,379,787.6,379"/>
	<path d="M471.5,407.2c0-15.4,0-30.8,0-46.2c0-3.2,0-6.5,0-9.7c0-5.1,0-10.3,0-15.4c0-0.1,0-0.3,0-0.4c0-0.1,0-0.2,0-0.2
		c0-1.8-0.3-3.4-0.9-4.6c0,0,0,0,0,0c-0.1-0.1-0.1-0.3-0.2-0.4c-0.6-1.2-1.4-2.1-2.5-2.7c0,0,0,0,0,0c-0.1,0-0.1-0.1-0.2-0.1
		c-1.4-0.8-3.1-1.2-5.2-1.2l-0.5,0c0,0-0.1,0-0.1,0l-4.2,0l-4.3,0c0,0-0.1,0-0.1,0l-0.3,0c-1.8,0-3.4,0.3-4.7,0.8
		c-0.1,0-0.1,0-0.2,0.1c-0.1,0.1-0.2,0.1-0.4,0.2c-0.2,0.1-0.3,0.2-0.5,0.2c0,0,0,0,0,0c-0.5,0.3-0.9,0.6-1.3,1
		c-1.6,1.6-2.4,3.9-2.4,7.1c0,8.8,0,17.6,0,26.4c0,16.1,0.1,32.1,0,48.2c0,1.4-0.1,2.8-0.3,4.1c0,0.1,0,0.3-0.1,0.4
		c-0.6,2.9-1.3,5.7-2.5,8.3c-1.4,3-3.4,5.7-5.9,8.2c-1.7,1.7-3.7,2.9-5.7,3.9c-0.1,0-0.2,0.1-0.3,0.1c-3.4,1.5-7.2,2.1-11.1,2.2
		c-0.3,0-0.6,0-0.9,0c-0.3,0-0.6,0-0.9,0c-3.9-0.1-7.7-0.7-11.1-2.2c-0.1,0-0.2-0.1-0.3-0.1c-2.1-0.9-4-2.2-5.7-3.9
		c-2.5-2.5-4.5-5.2-5.9-8.2c-1.1-2.6-1.9-5.4-2.5-8.3c0-0.1,0-0.3-0.1-0.4c-0.2-1.3-0.3-2.7-0.3-4.1c-0.1-16.1,0-32.1,0-48.2
		c0-8.8,0-17.6,0-26.4c0-3.1-0.8-5.5-2.4-7.1c-0.4-0.4-0.8-0.7-1.3-1c0,0,0,0,0,0c-0.1-0.1-0.3-0.2-0.5-0.2
		c-0.1-0.1-0.2-0.1-0.4-0.2c0,0-0.1,0-0.2-0.1c-1.3-0.6-2.9-0.8-4.7-0.8l-0.3,0c0,0-0.1,0-0.1,0l-4.3,0l-4.2,0c0,0-0.1,0-0.1,0
		l-0.5,0c-2.1,0-3.9,0.4-5.2,1.2c-0.1,0-0.1,0.1-0.2,0.1c0,0,0,0,0,0c-1.1,0.7-1.9,1.6-2.5,2.7c-0.1,0.1-0.1,0.3-0.2,0.4
		c0,0,0,0,0,0c-0.6,1.3-0.9,2.8-0.9,4.6c0,0.1,0,0.2,0,0.2c0,0.1,0,0.2,0,0.4c0,5.1,0,10.3,0,15.4c0,3.2,0,6.5,0,9.7
		c0,15.4,0,30.8,0,46.2c0,2.7,0,5.5,0.3,8.2c0.2,1.6,0.4,3.1,0.7,4.6c4,22.9,21.8,39.2,44.3,42.2c0.2,0,0.3,0,0.5,0.1
		c0.3,0,0.6,0.1,0.9,0.1c0.1,0,0.2,0,0.3,0c1.9,0.2,3.8,0.3,5.8,0.4c0.4,0,0.8,0,1.2,0c0.1,0,0.2,0,0.3,0c0.2,0,0.3,0,0.5,0
		c0.2,0,0.3,0,0.5,0c0.1,0,0.2,0,0.3,0c0.4,0,0.8,0,1.2,0c2,0,3.9-0.2,5.8-0.4c0.1,0,0.2,0,0.3,0c0.3,0,0.6-0.1,0.9-0.1
		c0.2,0,0.4,0,0.5-0.1c22.5-3,40.3-19.3,44.3-42.2c0.3-1.5,0.5-3,0.7-4.6C471.5,412.7,471.6,409.9,471.5,407.2z"/>
	<path d="M148.5,461.6c-9.8-0.2-18.9-1.4-27.1-6.1c-3.6-2.1-6.9-4.6-9.6-7.8c-3.3-3.9-3.2-8.6,0.1-12.4c1.7-2,3.4-4.1,5.1-6.2
		c3.2-3.8,6.6-4.3,10.7-1.4c2.8,2,5.4,4.2,8.5,5.7c7.8,3.8,15.8,4.1,23.6,0.4c9-4.2,10-14.3,2.3-20.7c-4.7-3.9-10.1-6.7-15.5-9.4
		c-7.6-3.8-15.1-7.7-21.5-13.3c-12.1-10.5-15.9-23.9-12.1-39.2c3.7-15,14-24.1,28.7-27.7c15.6-3.9,30.2-0.9,43.2,8.6
		c2.6,1.9,5,4.1,5.9,7.5c0.8,3,0.3,5.6-1.8,7.9c-2.1,2.3-4.2,4.5-6.4,6.7c-4,3.9-7.1,3.9-11.2,0.2c-7.2-6.4-15.4-8.6-24.7-6
		c-4.8,1.3-7.8,4.7-8.8,9.6c-1,4.9,0.2,9.2,4.3,12.5c5,4,10.6,6.8,16.4,9.3c8.2,3.7,16,8,22.9,13.9c19.8,16.8,15.7,49.8-8.4,62.2
		C165.1,459.9,156.8,461.6,148.5,461.6"/>
	<path d="M673.2,514.8c11.5-0.3,21.7,3.6,31,10.4c1.7,1.3,3.4,2.7,4.5,4.6c2,3.6,1.9,7.5-0.8,10.4c-2.3,2.6-4.7,5.2-7.3,7.4
		c-3.6,3.1-6.4,2.9-9.9-0.3c-6.9-6.3-14.8-8.6-24-6.6c-5.2,1.1-8.5,4.3-9.8,9.5c-1.4,5.4,0.2,9.9,4.6,13.3
		c4.9,3.9,10.5,6.6,16.2,9.1c7.5,3.3,14.5,7.3,21,12.3c21.9,17,17.7,50.5-5.9,63.2c-9.6,5.2-19.8,6.7-30.6,6
		c-9.6-0.6-18.5-2.9-26.3-8.7c-2-1.5-3.8-3.2-5.4-5.1c-3-3.7-2.9-8.4,0.2-12.1c1.6-1.9,3.2-3.9,4.7-5.8c3.8-4.6,7.3-5,12-1.3
		c2.8,2.1,5.6,4.2,8.8,5.6c7.4,3.2,14.9,3.3,22.2-0.1c9.1-4.2,10.3-14.1,2.7-20.6c-5.2-4.4-11.2-7.4-17.2-10.4
		c-8.5-4.3-16.8-8.8-23.4-15.8c-10.4-11.3-12.5-24.6-7.8-38.7c4.7-14.2,15.3-22.1,29.6-25.3C665.8,515,669.5,514.6,673.2,514.8"/>
	<path d="M646.8,410.1c0-13.1-0.3-26.1,0.1-39.2c0.3-13.5,4.8-25.6,15-34.9c8.4-7.7,18.6-10.6,29.7-11c4.4-0.2,8.8-0.1,13.2,0
		c5.5,0,8.7,3.1,8.8,8.6c0.1,2.7,0.1,5.3,0,8c-0.2,5.5-3.2,8.6-8.8,8.7c-3.1,0.1-6.2,0-9.2,0c-11.9,0-19.5,6.5-21.5,18.3
		c-0.5,3-0.6,6-0.6,8.9c0,23.8,0,47.6,0,71.4c0,6.8-3,9.7-9.7,9.7c-2.7,0-5.3,0-8,0c-5.7,0-9-3.1-9.1-8.9c-0.1-4.7,0-9.3,0-14v-25.7
		H646.8z"/>
	<path d="M601.2,584.7c0,18.8,0,37.6,0,56.4c0,7.5-2.9,10.4-10.5,10.4c-2.5,0-5,0.1-7.5,0c-5.7-0.1-8.9-3.3-8.9-9.1c0-5,0-10,0-15
		c0-33.3,0-66.5,0-99.8c0-7,2.9-9.9,9.8-9.9c2.6,0,5.2,0,7.7,0c6.2,0.1,9.3,3.2,9.3,9.4c0,7.6,0,15.3,0,22.9V584.7z"/>
</g>
</svg>
